Coordinates
version=1
nRows=14
nColumns=24
inDegrees=yes

Units are S.I. units (second, meters, Newtons, ...)
Angles are in degrees.

endheader
time	pelvis_tilt	pelvis_list	pelvis_rotation	pelvis_tx	pelvis_ty	pelvis_tz	hip_flexion_r	hip_adduction_r	hip_rotation_r	knee_angle_r	ankle_angle_r	subtalar_angle_r	mtp_angle_r	hip_flexion_l	hip_adduction_l	hip_rotation_l	knee_angle_l	ankle_angle_l	subtalar_angle_l	mtp_angle_l	lumbar_extension	lumbar_bending	lumbar_rotation
      2.61000000	      8.30664442	     -5.89579891	     -8.50697600	      1.12476403	      0.98180350	      0.02474637	    -21.83884190	     -3.56142122	     -7.09594929	    -31.55977694	     -8.55514275	      9.27596487	     33.49285492	     14.86246947	     -7.73939319	    -22.91693676	    -23.06990514	     -8.38191699	    -15.05283062	     10.36809413	    -19.08536031	     11.40062132	     51.87573572
      2.61500000	      8.30395484	     -5.88033334	     -8.17827385	      1.13165630	      0.98285943	      0.02339629	    -21.27358717	     -3.60977520	     -7.17616019	    -32.87092608	     -9.79865993	      8.69364804	     33.30636810	     14.53751529	     -7.53390785	    -22.71407833	    -23.14349584	     -8.00022731	    -14.95670563	     10.20111439	    -19.00065230	     11.46505768	     51.61737318
      2.62000000	      8.29869427	     -5.87706520	     -7.85212760	      1.13853290	      0.98394722	      0.02205889	    -20.67621784	     -3.64093084	     -7.24131178	    -34.19147439	    -10.94736567	      8.06354594	     32.95182240	     14.19867841	     -7.34170878	    -22.50305618	    -23.19670467	     -7.59745471	    -14.84839039	      9.97691243	    -18.90800050	     11.54357013	     51.31980711
      2.62500000	      8.29456852	     -5.87979277	     -7.55636606	      1.14532741	      0.98508272	      0.02078175	    -20.02259049	     -3.66914528	     -7.25064391	    -35.58904350	    -11.74918797	      7.64835375	     30.64034767	     13.84098848	     -7.16884504	    -22.34652315	    -23.23684294	     -7.02182534	    -14.55153642	      8.25882821	    -18.83367704	     11.62581329	     51.09818610
      2.63000000	      8.29689000	     -5.91154307	     -7.21601782	      1.15211871	      0.98622259	      0.01945733	    -19.37063200	     -3.64478060	     -7.28034534	    -36.94991123	    -12.48819522	      7.16598277	     28.73072706	     13.47216047	     -7.01358933	    -22.12831180	    -23.24865695	     -6.59456272	    -14.43949605	      7.93511757	    -18.75737038	     11.75115070	     50.78508220
      2.63500000	      8.30253327	     -5.94171991	     -6.90045408	      1.15883731	      0.98742233	      0.01819020	    -18.68300837	     -3.62223218	     -7.29843013	    -38.32200802	    -13.07626645	      6.61282594	     26.92920173	     13.07475804	     -6.86406945	    -21.93187271	    -23.21756872	     -6.21565490	    -14.27382663	      7.57709625	    -18.69414235	     11.87074277	     50.53756077
      2.64000000	      8.29342273	     -5.99887505	     -6.56494165	      1.16553805	      0.98857703	      0.01690927	    -17.96371148	     -3.55462957	     -7.31208516	    -39.68578049	    -13.45868958	      6.11472535	     24.90209329	     12.69866573	     -6.74346315	    -21.69215556	    -23.19533705	     -5.78933952	    -14.14889710	      7.18678923	    -18.60586277	     12.02913440	     50.21497747
      2.64500000	      8.29589631	     -6.06931926	     -6.22616259	      1.17218172	      0.98977793	      0.01565446	    -17.24022128	     -3.46182231	     -7.33107525	    -40.99787729	    -13.88410436	      5.39112746	     24.52210866	     12.29320942	     -6.63793306	    -21.45053209	    -23.12991341	     -5.44403320	    -14.05093071	      7.18293317	    -18.53934653	     12.20399575	     49.92543243
      2.65000000	      8.30914867	     -6.13373491	     -5.92572801	      1.17877762	      0.99102850	      0.01445744	    -16.48985638	     -3.38541866	     -7.32902744	    -42.35819107	    -13.77027980	      5.01986525	     21.34727122	     11.85494662	     -6.53585102	    -21.26194757	    -23.04097425	     -5.03376845	    -13.86125154	      6.52326575	    -18.49461355	     12.36196116	     49.64462450
      2.65500000	      8.33873260	     -6.21282366	     -5.59946570	      1.18535339	      0.99229900	      0.01325997	    -15.75685535	     -3.27952157	     -7.36929217	    -43.63640957	    -13.73968778	      4.42465561	     20.00937141	     11.39528422	     -6.44834830	    -21.03300471	    -22.92954208	     -4.71290023	    -13.69719785	      6.31743416	    -18.46433049	     12.54589631	     49.38715465
      2.66000000	      8.32698952	     -6.32153945	     -5.28640377	      1.19187015	      0.99351678	      0.01209647	    -14.95915139	     -3.13375423	     -7.39686765	    -44.87018662	    -13.71418010	      3.79082122	     19.68437681	     10.98171995	     -6.40257226	    -20.79455746	    -22.83351735	     -4.37789402	    -13.63205982	      6.29886864	    -18.39597065	     12.76374583	     49.09725154
      2.66500000	      8.34201684	     -6.41630211	     -5.00404980	      1.19835965	      0.99478980	      0.01099148	    -14.16727581	     -3.01178520	     -7.41842318	    -46.10715298	    -13.21416643	      3.41089002	     17.40166866	     10.51243786	     -6.34862601	    -20.60979675	    -22.68359458	     -4.01705444	    -13.44435134	      5.76487548	    -18.35831631	     12.95938509	     48.84546530
      2.67000000	      8.34523860	     -6.52026646	     -4.71293724	      1.20481558	      0.99604601	      0.00989261	    -13.36174694	     -2.87350727	     -7.47729065	    -47.24358990	    -12.92389636	      2.84239505	     17.31064356	     10.05184753	     -6.30536078	    -20.39278215	    -22.51391445	     -3.75916899	    -13.33971715	      5.78779407	    -18.30680614	     13.17054685	     48.58104408
      2.67500000	      8.37097270	     -6.63702767	     -4.41020021	      1.21123547	      0.99731427	      0.00880839	    -12.57187471	     -2.72299393	     -7.59266536	    -48.32677360	    -12.54332698	      2.26810098	     17.07204672	      9.57457800	     -6.28324599	    -20.18141544	    -22.35927744	     -3.47225468	    -13.21671121	      5.76838812	    -18.29322102	     13.39956949	     48.34881922
